<?xml version="1.0" standalone="no"?>
<!DOCTYPE svg PUBLIC "-//W3C//DTD SVG 20010904//EN"
 "http://www.w3.org/TR/2001/REC-SVG-20010904/DTD/svg10.dtd">
<svg version="1.0" xmlns="http://www.w3.org/2000/svg"
 width="300.000000pt" height="300.000000pt" viewBox="0 0 300.000000 300.000000"
 preserveAspectRatio="xMidYMid meet">
<metadata>
Created by potrace 1.11, written by Peter Selinger 2001-2013
</metadata>
<g transform="translate(0.000000,300.000000) scale(0.100000,-0.100000)"
fill="#000000" stroke="none">
<path d="M1269 2941 c-26 -14 -39 -17 -47 -9 -8 8 -9 5 -5 -10 5 -19 3 -20
-26 -12 -24 7 -31 6 -31 -6 0 -8 -8 -15 -17 -15 -24 -2 -25 -2 -45 6 -10 4
-24 -1 -37 -14 -17 -17 -21 -18 -21 -5 0 8 -5 12 -10 9 -6 -4 -7 -11 -4 -17 4
-7 2 -8 -4 -4 -12 7 -72 -19 -83 -36 -3 -5 -10 -9 -15 -9 -21 2 -43 -11 -47
-27 -4 -14 -6 -13 -12 6 -7 22 -25 31 -25 12 0 -6 -11 -15 -25 -20 -45 -17
-144 -85 -150 -102 -4 -10 -11 -18 -17 -18 -6 0 -28 -18 -49 -40 -22 -22 -43
-40 -47 -40 -10 0 -136 -137 -171 -186 -13 -19 -28 -34 -33 -34 -4 0 -8 -5 -8
-11 0 -5 -13 -27 -29 -47 -16 -20 -51 -80 -77 -132 -26 -52 -55 -103 -63 -114
-9 -10 -15 -21 -13 -25 1 -3 -10 -39 -24 -78 -21 -58 -24 -76 -15 -87 10 -12
8 -17 -7 -25 -14 -7 -18 -17 -15 -31 3 -12 -2 -29 -12 -40 -14 -15 -19 -44
-23 -122 -9 -169 -5 -327 7 -342 7 -9 8 -17 2 -20 -14 -9 -1 -46 18 -47 10 0
11 -2 4 -6 -17 -6 -17 -30 -1 -35 15 -5 17 -40 4 -50 -6 -4 -5 -12 2 -21 7 -7
9 -16 7 -19 -3 -3 0 -18 7 -34 6 -16 22 -63 34 -104 12 -41 23 -67 23 -57 1 9
6 17 11 17 6 0 14 -8 17 -17 4 -10 13 -24 20 -31 7 -7 13 -24 13 -38 0 -13 4
-24 9 -24 5 0 14 -23 21 -50 7 -28 16 -52 21 -55 4 -3 6 -12 2 -20 -7 -20 23
-65 43 -65 10 0 14 -6 11 -14 -4 -10 -1 -13 8 -10 9 4 16 -3 21 -20 3 -14 9
-26 13 -26 4 0 13 -17 20 -37 8 -21 43 -66 80 -103 64 -63 173 -150 187 -150
4 0 15 -7 24 -15 21 -19 148 -85 164 -85 8 0 35 -9 62 -19 63 -24 189 -60 234
-67 19 -2 42 -7 51 -10 9 -2 38 -7 64 -9 26 -3 65 -9 87 -14 52 -12 458 -3
458 10 0 3 -13 18 -30 34 -26 25 -43 25 -22 -1 4 -5 3 -6 -3 -1 -5 4 -18 7
-29 7 -20 0 -20 0 0 14 31 22 74 14 93 -17 15 -26 51 -38 51 -17 0 6 -9 10
-20 10 -11 0 -20 4 -20 9 0 4 25 9 56 9 38 0 62 6 74 17 12 11 29 16 44 13 18
-4 27 0 31 12 3 9 12 17 20 17 8 0 12 -4 9 -9 -9 -14 6 -9 44 17 20 14 41 25
47 25 6 0 20 8 31 18 17 15 70 44 85 46 3 1 19 11 35 24 16 12 54 41 84 63 60
44 131 107 144 127 5 8 -2 16 -20 22 -25 10 -26 12 -11 27 15 15 19 15 43 2
26 -13 28 -12 75 41 27 30 49 65 49 77 0 12 10 29 22 37 16 12 21 25 21 58 0
24 1 35 4 25 2 -9 8 -17 13 -17 11 0 76 92 85 121 4 13 18 45 31 71 14 27 24
50 24 53 0 3 6 20 13 38 14 33 28 105 33 167 13 162 13 194 1 208 -10 13 -15
149 -8 247 2 31 -6 84 -18 113 -6 15 -12 38 -14 52 -2 14 -7 33 -12 43 -4 9
-4 24 -1 33 3 8 -5 37 -19 65 -14 27 -23 49 -21 49 3 0 -1 17 -8 38 -7 20 -11
43 -9 50 3 7 -4 12 -15 12 -16 0 -22 9 -27 40 -4 22 -22 63 -41 90 -19 27 -34
53 -34 56 0 4 -12 23 -27 43 -16 20 -32 43 -38 53 -27 45 -92 117 -106 118 -9
0 -24 9 -34 20 -10 11 -28 20 -41 20 -15 0 -26 9 -35 29 -7 16 -17 27 -21 25
-4 -3 -8 4 -8 16 0 13 -10 25 -27 33 -16 6 -63 35 -106 64 -74 50 -155 93
-176 93 -5 0 -31 11 -57 25 -26 14 -66 30 -88 36 -23 6 -56 18 -74 26 -19 8
-51 16 -72 18 -21 1 -44 6 -51 11 -8 5 -75 9 -149 10 -74 1 -166 5 -205 9 -59
5 -75 3 -106 -14z m91 -61 c0 -5 -5 -10 -11 -10 -5 0 -7 5 -4 10 3 6 8 10 11
10 2 0 4 -4 4 -10z m450 -49 c0 -45 -6 -37 -13 18 -4 29 -2 40 4 30 5 -7 9
-29 9 -48z m-572 -56 c-3 -3 -9 2 -12 12 -6 14 -5 15 5 6 7 -7 10 -15 7 -18z
m-384 0 c3 -8 1 -15 -4 -15 -6 0 -10 7 -10 15 0 8 2 15 4 15 2 0 6 -7 10 -15z
m351 3 c3 -3 -1 -8 -9 -11 -8 -3 -19 0 -25 7 -8 10 -6 12 9 11 11 -1 22 -4 25
-7z m-320 -38 c-3 -5 -12 -10 -18 -10 -7 0 -6 4 3 10 19 12 23 12 15 0z m-38
-22 c-3 -8 -6 -5 -6 6 -1 11 2 17 5 13 3 -3 4 -12 1 -19z m77 -26 c3 -20 -1
-32 -10 -36 -10 -4 -12 -2 -8 6 4 6 7 24 6 40 -1 38 7 31 12 -10z m-83 -25
c-10 -9 -11 -8 -5 6 3 10 9 15 12 12 3 -3 0 -11 -7 -18z m636 7 c-3 -3 -12 -4
-19 -1 -8 3 -5 6 6 6 11 1 17 -2 13 -5z m-392 -24 c3 -5 -1 -10 -10 -10 -9 0
-13 5 -10 10 3 6 8 10 10 10 2 0 7 -4 10 -10z m535 -23 c63 -8 141 -22 174
-31 69 -19 194 -72 217 -92 8 -8 19 -14 23 -14 4 0 40 -21 79 -46 83 -53 235
-204 274 -272 15 -26 30 -49 33 -52 4 -3 9 -12 13 -20 4 -8 11 -22 17 -30 5
-8 21 -42 35 -75 15 -33 33 -73 40 -90 27 -62 72 -269 77 -357 1 -21 5 -38 8
-38 3 0 4 -35 2 -77 -4 -120 -63 -368 -104 -442 -16 -27 -17 -36 -6 -42 10 -7
9 -9 -3 -9 -10 0 -30 -27 -52 -72 -20 -40 -64 -106 -97 -146 -56 -66 -196
-187 -252 -217 -13 -6 -34 -17 -48 -25 -49 -26 -56 -29 -115 -58 -152 -73
-350 -105 -545 -88 -100 9 -207 26 -250 40 -19 7 -44 12 -55 12 -11 -1 -22 2
-25 5 -9 10 -165 84 -172 82 -4 -2 -20 11 -37 27 -19 20 -31 26 -34 17 -3 -7
-6 -5 -6 5 -1 18 -60 68 -79 68 -7 0 -12 7 -12 15 0 8 -13 24 -29 36 -16 12
-32 30 -34 40 -3 10 -13 22 -24 26 -24 8 -65 54 -89 98 -10 19 -22 35 -26 35
-21 0 -157 329 -158 383 0 9 -4 17 -8 17 -10 0 -26 166 -25 258 0 39 -4 62
-11 62 -7 0 -7 3 1 8 6 4 14 21 17 37 10 51 27 158 31 197 3 21 12 49 21 62 8
14 15 28 14 31 -4 14 149 318 168 335 10 8 26 32 35 53 10 20 22 37 27 37 5 0
12 9 15 20 3 11 12 20 19 20 8 0 26 17 42 38 37 49 66 72 82 67 6 -2 12 3 12
11 0 8 4 13 9 10 4 -3 23 8 41 24 19 17 40 30 47 30 7 0 13 5 13 10 0 6 6 10
13 9 24 -3 38 1 33 10 -3 5 2 8 12 7 14 -1 16 6 14 34 -2 22 0 30 6 22 5 -7
17 -10 28 -7 19 7 19 6 0 -9 -31 -25 -16 -26 59 -5 39 10 84 19 100 18 17 0
53 4 80 10 61 12 210 7 365 -12z m233 -10 c3 -8 -1 -14 -8 -14 -7 0 -11 6 -8
14 3 7 6 13 8 13 2 0 5 -6 8 -13z m-993 -7 c0 -5 -2 -10 -4 -10 -3 0 -8 5 -11
10 -3 6 -1 10 4 10 6 0 11 -4 11 -10z m-220 -14 c0 -3 -4 -8 -10 -11 -5 -3
-10 -1 -10 4 0 6 5 11 10 11 6 0 10 -2 10 -4z m177 -41 c0 -8 -4 -12 -9 -9 -4
3 -8 9 -8 15 0 5 4 9 8 9 5 0 9 -7 9 -15z m-132 -4 c3 -5 1 -12 -5 -16 -5 -3
-10 1 -10 9 0 18 6 21 15 7z m1795 -82 c0 -6 -4 -7 -10 -4 -5 3 -10 11 -10 16
0 6 5 7 10 4 6 -3 10 -11 10 -16z m-2039 -72 c-10 -9 -11 -8 -5 6 3 10 9 15
12 12 3 -3 0 -11 -7 -18z m156 7 c-3 -3 -12 -4 -19 -1 -8 3 -5 6 6 6 11 1 17
-2 13 -5z m28 -24 c3 -5 2 -10 -4 -10 -5 0 -13 5 -16 10 -3 6 -2 10 4 10 5 0
13 -4 16 -10z m-128 -32 c-3 -8 -6 -5 -6 6 -1 11 2 17 5 13 3 -3 4 -12 1 -19z
m-137 -312 c0 -3 -4 -8 -10 -11 -5 -3 -10 -1 -10 4 0 6 5 11 10 11 6 0 10 -2
10 -4z m-136 -101 c-4 -8 -8 -15 -10 -15 -2 0 -4 7 -4 15 0 8 4 15 10 15 5 0
7 -7 4 -15z m-24 -65 c0 -5 -5 -10 -11 -10 -5 0 -7 5 -4 10 3 6 8 10 11 10 2
0 4 -4 4 -10z m65 -70 c3 -5 1 -10 -4 -10 -6 0 -11 5 -11 10 0 6 2 10 4 10 3
0 8 -4 11 -10z m-88 -266 c-3 -3 -12 -4 -19 -1 -8 3 -5 6 6 6 11 1 17 -2 13
-5z m-17 -274 c0 -5 -8 -10 -17 -10 -15 0 -16 2 -3 10 19 12 20 12 20 0z m106
-109 c-4 -5 -1 -12 4 -14 6 -3 5 -4 -2 -3 -15 3 -23 26 -8 26 6 0 9 -4 6 -9z
m9 -91 c3 -6 -1 -7 -9 -4 -18 7 -21 14 -7 14 6 0 13 -4 16 -10z m-92 -90 c-3
-12 -8 -19 -11 -16 -5 6 5 36 12 36 2 0 2 -9 -1 -20z m97 -90 c0 -5 -5 -10
-11 -10 -5 0 -7 5 -4 10 3 6 8 10 11 10 2 0 4 -4 4 -10z m280 -190 c0 -5 -5
-10 -11 -10 -5 0 -7 5 -4 10 3 6 8 10 11 10 2 0 4 -4 4 -10z m-135 -150 c3 -6
-1 -7 -9 -4 -18 7 -21 14 -7 14 6 0 13 -4 16 -10z m703 -435 c-3 -3 -9 2 -12
12 -6 14 -5 15 5 6 7 -7 10 -15 7 -18z"/>
<path d="M1447 2538 c-8 -5 -4 -15 12 -32 23 -24 26 -25 42 -10 12 11 25 13
41 8 13 -4 32 -8 43 -10 11 -1 32 -7 46 -12 15 -6 29 -8 32 -5 7 7 78 -18 98
-34 8 -7 21 -13 27 -13 32 0 250 -155 319 -227 35 -37 97 -29 114 14 19 51
-44 72 -80 27 -17 -22 -23 -24 -35 -12 -8 7 -56 47 -107 88 -51 41 -109 89
-127 107 -19 17 -49 37 -66 44 -17 6 -58 24 -91 40 -33 15 -67 29 -75 30 -33
4 -50 -2 -50 -16 0 -13 -4 -12 -21 4 -15 14 -33 19 -66 18 -25 -1 -50 -5 -56
-9z"/>
<path d="M1395 2520 c-9 -15 21 -41 39 -34 18 7 13 20 -14 34 -13 7 -21 7 -25
0z"/>
<path d="M1300 2489 c0 -5 -4 -8 -9 -5 -5 3 -12 -1 -15 -9 -3 -8 -9 -15 -13
-14 -19 3 -23 -2 -13 -20 5 -11 7 -33 4 -50 -6 -26 -11 -31 -36 -31 -26 0 -49
-23 -35 -36 3 -3 52 -7 109 -8 118 -3 198 -29 198 -64 0 -11 -7 -22 -15 -26
-8 -3 -15 -12 -15 -21 0 -26 14 -17 37 24 21 37 21 39 4 55 -9 9 -33 19 -52
23 -18 3 -40 12 -46 19 -7 7 -41 15 -76 19 l-63 7 23 49 c24 48 44 61 60 36
20 -33 102 -87 140 -93 35 -5 43 -3 52 14 16 30 13 37 -7 18 -23 -20 -47 -17
-94 14 -24 16 -38 33 -38 46 0 25 -38 63 -48 48 -10 -14 -38 -11 -34 4 1 7 -2
12 -8 12 -5 0 -10 -5 -10 -11z"/>
<path d="M1316 2412 c-7 -12 17 -38 42 -46 29 -9 28 5 -1 32 -25 24 -33 26
-41 14z"/>
<path d="M1623 2380 c-14 -5 -23 -18 -23 -30 0 -32 54 -50 130 -45 86 6 99 23
17 23 -61 0 -107 13 -107 31 0 17 54 19 103 4 54 -16 77 -10 31 8 -39 16 -124
21 -151 9z"/>
<path d="M983 2361 c7 -30 -12 -36 -74 -24 -63 13 -99 6 -99 -18 0 -13 12 -21
43 -30 36 -10 47 -9 72 6 30 17 30 17 11 -4 -17 -18 -17 -21 -2 -43 9 -12 16
-30 16 -40 0 -10 5 -18 10 -18 6 0 10 4 10 8 0 4 12 9 26 10 36 3 58 22 44 36
-7 7 -13 7 -18 1 -9 -14 -72 -19 -72 -7 0 25 54 43 79 27 10 -5 16 -5 18 2 3
8 14 8 33 3 17 -5 32 -5 34 -2 2 4 25 6 51 4 35 -3 45 -8 41 -18 -7 -18 9 -18
28 1 16 17 170 22 195 6 18 -11 7 -17 -72 -35 -48 -11 -74 -13 -93 -6 -29 11
-44 6 -44 -16 0 -8 -6 -14 -12 -14 -7 0 -26 -7 -43 -16 -16 -9 -52 -23 -80
-31 -27 -8 -59 -17 -69 -20 -14 -5 -17 -3 -11 8 5 8 -3 4 -16 -7 -13 -12 -39
-29 -57 -39 -33 -16 -34 -17 -15 -38 13 -16 13 -18 2 -9 -14 10 -18 10 -23 -4
-5 -14 -2 -15 21 -9 37 11 193 14 187 4 -2 -4 0 -10 6 -14 5 -3 10 -1 10 6 0
9 3 9 14 0 35 -29 196 -8 331 43 48 18 136 21 153 4 13 -13 16 -57 4 -74 -4
-6 -19 -10 -34 -10 -20 1 -28 -3 -28 -15 0 -41 73 -32 95 12 40 76 -4 129
-107 129 -54 0 -222 -43 -246 -62 -18 -15 -170 -12 -189 3 -8 8 -39 12 -75 11
-55 -2 -60 0 -42 12 10 8 22 12 26 10 4 -2 9 0 13 6 3 5 14 10 24 10 10 0 32
7 47 15 16 8 39 15 51 15 13 0 49 9 80 19 32 11 75 22 97 26 55 9 116 46 116
69 -1 31 -20 38 -136 47 -65 5 -122 13 -127 18 -5 5 -15 7 -22 5 -6 -3 -17 2
-24 10 -10 12 -9 14 8 9 12 -3 21 -1 21 6 0 6 -15 11 -33 11 -18 0 -38 5 -43
10 -6 6 -35 13 -64 17 -51 6 -53 5 -47 -16z m87 -51 c0 -5 -2 -10 -4 -10 -3 0
-8 5 -11 10 -3 6 -1 10 4 10 6 0 11 -4 11 -10z"/>
<path d="M1820 2340 c0 -5 5 -10 11 -10 5 0 7 5 4 10 -3 6 -8 10 -11 10 -2 0
-4 -4 -4 -10z"/>
<path d="M1522 2312 c-17 -5 -15 -23 5 -37 15 -11 15 -17 5 -40 -7 -15 -10
-30 -6 -34 4 -3 9 -1 11 6 8 21 168 -14 198 -43 9 -9 19 -13 23 -9 4 4 -4 15
-17 26 -13 11 -21 22 -18 26 7 7 46 -37 47 -53 0 -5 8 -19 18 -30 9 -11 22
-27 27 -36 6 -8 18 -27 28 -41 26 -37 15 -82 -25 -103 -16 -8 -31 -14 -31 -12
-25 50 -44 59 -53 24 -8 -33 12 -59 42 -53 14 2 25 -2 29 -11 8 -21 55 -7 83
25 30 36 30 103 -2 170 -30 62 -135 153 -210 181 -79 31 -141 49 -154 44z
m158 -72 c13 -8 13 -11 1 -22 -9 -8 -12 -9 -7 -1 3 6 -2 16 -11 22 -10 6 -13
10 -8 11 6 0 17 -5 25 -10z m187 -158 c13 -30 22 -56 20 -59 -6 -5 -67 103
-67 117 0 24 24 -5 47 -58z"/>
<path d="M1824 2281 c3 -4 -18 -6 -46 -3 -56 5 -61 -11 -7 -23 20 -5 29 -11
25 -21 -4 -10 2 -14 19 -14 14 0 25 -4 25 -10 0 -5 7 -10 15 -10 8 0 14 -5 13
-11 -2 -6 3 -14 11 -17 9 -3 11 0 6 9 -4 8 6 1 23 -16 16 -16 28 -33 25 -37
-2 -5 1 -8 6 -8 6 0 11 -6 11 -14 0 -8 7 -13 16 -12 9 0 19 -5 21 -12 3 -8 -1
-10 -13 -5 -14 5 -13 2 4 -15 14 -14 19 -28 15 -39 -5 -12 -2 -15 10 -10 12 5
17 1 17 -13 0 -10 -4 -22 -10 -25 -6 -4 -4 -16 6 -31 15 -22 15 -24 0 -24 -19
0 -21 -16 -3 -23 9 -4 9 -8 -2 -15 -15 -11 2 -27 18 -17 5 3 13 0 17 -6 5 -8
-5 -9 -35 -4 -26 4 -41 3 -41 -3 0 -6 7 -12 16 -14 25 -5 -17 -48 -48 -48 -13
0 -29 -5 -36 -12 -9 -9 -12 -8 -12 5 0 9 -4 17 -10 17 -14 0 -12 -37 3 -43 6
-3 -7 -4 -30 -4 -28 1 -43 6 -43 14 0 15 -17 18 -22 3 -5 -14 -48 0 -48 16 0
8 -4 14 -10 14 -10 0 -13 -14 -11 -60 0 -21 -1 -20 -10 8 -5 17 -16 32 -24 32
-8 0 -15 6 -15 14 0 21 -30 29 -31 8 0 -10 -3 -12 -6 -4 -2 6 -11 12 -18 12
-8 0 -18 8 -24 17 -7 14 -12 15 -24 4 -13 -10 -18 -9 -29 8 -16 26 -28 27 -28
4 -1 -14 -6 -12 -26 11 l-25 28 -24 -26 c-28 -30 -25 -29 -62 -15 -22 8 -24
12 -13 19 19 12 33 13 25 1 -10 -17 17 -24 33 -8 14 14 13 18 -8 40 l-24 25
-18 -22 c-17 -21 -17 -21 -18 12 0 17 -4 32 -10 32 -5 0 -10 -9 -10 -20 0 -19
-2 -19 -23 -6 -15 10 -27 12 -37 6 -21 -13 -30 -12 -30 4 0 10 -15 12 -62 9
-35 -2 -67 -8 -73 -12 -5 -4 -22 -7 -37 -6 -16 0 -28 -3 -28 -8 0 -5 -7 -7
-15 -3 -8 3 -15 1 -15 -5 0 -6 -7 -8 -16 -5 -8 3 -22 -1 -30 -9 -9 -8 -25 -15
-36 -15 -13 0 -18 -5 -15 -14 5 -13 -31 -31 -42 -21 -2 3 2 5 10 5 12 0 11 2
-1 11 -13 9 -13 10 0 6 18 -4 54 38 47 56 -3 6 -6 3 -6 -8 -1 -17 -3 -17 -11
-5 -8 13 -19 10 -72 -18 -75 -40 -221 -175 -235 -217 -5 -16 -12 -25 -15 -19
-3 5 -1 25 6 45 7 20 12 65 11 100 -1 36 4 74 11 88 12 22 11 27 0 31 -10 4
-5 15 20 40 30 30 41 35 85 36 37 0 56 6 72 23 19 18 20 23 7 31 -9 5 -19 5
-27 -2 -7 -6 -32 -11 -56 -13 -51 -2 -92 -18 -100 -39 -9 -22 -36 -9 -30 15 3
10 3 19 0 19 -10 0 -35 -59 -42 -100 -4 -23 -13 -54 -21 -68 -9 -17 -10 -30
-4 -36 14 -14 12 -26 -4 -26 -11 0 -14 -15 -13 -65 1 -46 5 -65 14 -65 7 0 13
-4 13 -10 0 -5 -7 -7 -14 -4 -13 5 -13 2 -3 -20 7 -14 15 -26 20 -26 11 0 9
-18 -7 -53 -34 -80 -35 -86 -23 -91 7 -2 5 -5 -5 -5 -12 -1 -18 -15 -23 -63
-4 -35 -8 -78 -11 -97 -2 -19 1 -40 7 -47 6 -7 8 -18 5 -23 -4 -6 9 -27 29
-48 19 -20 35 -31 35 -24 0 7 9 3 20 -10 11 -14 19 -18 20 -11 0 9 7 11 20 7
13 -4 22 -1 26 9 3 8 11 13 18 10 21 -8 55 31 61 72 6 33 3 42 -19 63 -15 15
-31 21 -42 17 -16 -6 -16 -18 0 -57 4 -10 0 -23 -9 -33 -20 -20 -29 -20 -49
-1 -8 8 -19 15 -25 15 -20 0 -29 35 -21 80 5 25 6 48 4 52 -3 5 -1 8 5 8 6 0
8 7 5 15 -4 8 -2 15 4 15 5 0 13 11 16 25 3 13 17 41 31 61 14 20 25 40 25 45
0 4 5 20 12 36 14 34 15 39 17 59 0 8 5 13 10 9 6 -3 14 3 20 12 13 22 15 9 2
-15 -4 -9 -11 -30 -15 -45 -10 -40 10 -25 24 18 6 19 27 51 46 70 32 33 39 47
35 69 -1 5 5 6 13 3 11 -4 18 1 22 18 4 15 11 22 20 18 9 -3 14 2 14 16 0 12
4 21 9 21 5 0 7 -10 5 -22 -4 -20 -3 -21 7 -7 10 14 14 13 36 -9 l25 -25 17
27 c10 14 21 23 24 19 4 -3 7 3 7 15 0 15 5 20 15 16 18 -7 20 7 3 26 -7 8 -3
6 10 -5 23 -19 23 -19 29 3 3 13 13 22 25 22 11 0 28 5 39 10 15 8 19 7 19 -5
0 -8 -9 -15 -20 -15 -11 0 -20 -5 -20 -11 0 -6 8 -8 18 -4 11 3 31 -1 47 -9
28 -15 55 -12 55 6 0 5 -6 8 -12 7 -32 -4 -48 2 -47 19 0 10 3 12 6 5 2 -7 9
-13 14 -13 6 0 7 5 4 10 -8 13 -3 13 33 -5 17 -9 55 -18 84 -22 31 -3 62 -13
74 -24 11 -11 23 -17 26 -13 4 3 16 1 27 -6 19 -10 20 -13 6 -26 -13 -14 -18
-13 -41 5 -15 12 -32 21 -38 21 -7 0 -17 5 -23 11 -16 16 -93 17 -93 2 0 -6
-6 -13 -12 -16 -7 -2 -10 -8 -6 -12 4 -4 13 -3 20 2 17 14 78 27 78 16 -1 -21
-19 -30 -60 -31 -52 0 -80 12 -80 34 0 12 -4 13 -21 4 -16 -9 -28 -8 -53 4
-18 8 -42 13 -53 10 -26 -7 -70 -63 -101 -126 -25 -51 -42 -69 -42 -44 0 8 5
18 10 21 15 9 12 25 -4 25 -8 0 -18 5 -22 11 -5 8 1 10 19 5 32 -8 47 12 21
27 -10 6 -32 12 -48 14 -22 2 -27 0 -22 -12 3 -8 0 -14 -6 -12 -15 3 -49 -63
-44 -85 2 -10 -2 -22 -10 -29 -8 -6 -12 -15 -9 -19 2 -4 -2 -16 -10 -26 -8
-10 -14 -30 -14 -44 0 -24 0 -24 14 -6 8 11 15 16 15 10 0 -17 -15 -32 -35
-35 -21 -5 -23 -16 -12 -97 11 -76 16 -85 35 -70 13 11 15 10 10 -9 -4 -13 -2
-25 2 -28 4 -3 6 -14 3 -25 -3 -11 -2 -28 2 -37 5 -10 8 -21 7 -24 -1 -4 8
-15 18 -24 11 -10 20 -22 20 -27 0 -13 31 -43 44 -43 6 0 12 -10 14 -22 2 -14
8 -20 18 -16 9 3 14 -2 14 -14 0 -26 122 -106 146 -96 11 4 15 2 11 -4 -4 -6
6 -16 23 -22 17 -5 30 -7 30 -4 0 3 7 0 15 -7 10 -8 19 -9 28 -3 6 5 24 8 39
7 20 -2 29 3 34 19 5 12 7 28 5 35 -1 8 5 23 15 33 13 15 14 19 3 19 -11 0
-11 2 -1 9 7 4 12 12 11 17 -10 57 24 89 57 53 21 -23 44 -25 44 -3 0 10 -6
14 -14 11 -8 -3 -20 1 -27 9 -8 10 -22 14 -39 10 -15 -3 -32 0 -39 7 -8 8 -11
8 -11 0 0 -8 -7 -8 -24 0 -24 11 -24 12 -5 19 27 10 13 31 -14 22 -37 -13 -66
-5 -120 30 -49 32 -136 105 -109 91 6 -3 12 -2 12 4 0 5 -6 11 -12 14 -9 2
-13 27 -13 73 0 38 -4 75 -9 83 -6 9 -5 12 2 8 6 -5 8 0 5 13 -4 14 0 20 12
20 11 0 15 5 11 15 -4 10 3 20 19 27 14 6 25 19 25 29 0 10 8 23 19 28 20 11
36 51 20 51 -5 0 -9 -4 -9 -10 0 -5 -7 -7 -15 -4 -8 4 -15 1 -15 -5 0 -6 6
-11 13 -12 6 0 3 -4 -8 -8 -24 -10 -37 6 -24 30 9 18 104 32 124 18 19 -13 70
-19 85 -9 10 6 11 10 3 10 -7 0 -12 3 -12 8 4 21 -3 32 -18 32 -13 0 -14 -3
-5 -12 7 -7 12 -16 12 -20 0 -14 -37 -9 -51 8 -8 10 -21 13 -37 9 -32 -8 -62
3 -56 20 3 8 23 23 43 33 37 19 38 19 49 1 18 -28 15 -31 -21 -24 -24 5 -37 2
-46 -9 -9 -11 -10 -16 -2 -16 6 0 11 3 11 8 0 4 21 8 48 9 26 1 66 5 88 8 31
5 48 3 68 -10 23 -15 26 -15 26 -2 0 8 -5 17 -12 19 -17 6 0 28 21 28 10 0 24
-7 31 -15 10 -12 9 -15 -4 -15 -12 0 -16 -7 -14 -22 2 -17 17 -27 68 -45 76
-26 108 -28 136 -9 13 10 25 11 35 5 19 -12 42 -11 34 1 -4 6 5 10 20 10 14 0
24 -4 21 -8 -5 -8 62 -52 78 -52 19 0 1 20 -31 33 l-38 16 30 0 c17 0 39 -6
49 -14 11 -8 30 -15 43 -15 17 0 21 -4 17 -17 -5 -15 -4 -15 6 1 14 21 0 36
-32 36 -27 0 -22 19 8 30 33 13 34 13 34 -6 0 -9 -5 -12 -12 -8 -10 5 -10 4
-2 -5 9 -10 16 -10 32 0 32 20 39 2 8 -22 -14 -11 -23 -25 -20 -30 3 -6 14 -3
26 7 16 16 21 16 28 4 7 -10 9 -1 7 30 -2 36 1 45 16 48 16 3 17 1 5 -17 -7
-11 -9 -24 -4 -28 4 -4 12 1 18 11 8 15 12 16 19 5 7 -11 9 -11 9 2 0 12 7 15
25 11 31 -6 55 13 55 44 0 13 3 24 8 24 4 0 15 14 24 31 10 17 22 27 28 24 5
-3 10 0 11 7 4 84 3 109 -6 111 -6 2 -5 13 3 28 12 23 12 23 8 2 -3 -19 -1
-21 14 -13 13 7 21 7 25 -1 4 -6 14 -8 22 -5 8 3 12 2 9 -3 -7 -10 27 -21 66
-21 41 0 88 45 88 85 0 38 -33 85 -61 85 -24 0 -25 -26 -1 -39 11 -7 12 -10 3
-11 -7 0 -11 -6 -7 -15 8 -22 -31 -38 -76 -31 -33 5 -54 22 -132 101 -51 52
-98 95 -104 95 -6 0 -15 6 -19 13 -15 23 -50 48 -82 57 -17 5 -29 5 -27 1z
m126 -101 c0 -13 -11 -13 -30 0 -12 8 -11 10 8 10 12 0 22 -4 22 -10z m80 -60
c0 -5 -7 -7 -15 -4 -8 4 -15 8 -15 10 0 2 7 4 15 4 8 0 15 -4 15 -10z m17 -60
c13 -15 19 -30 14 -38 -5 -9 -12 -7 -26 10 -11 13 -13 17 -5 11 25 -22 34 -14
12 10 -12 13 -22 27 -22 32 0 4 1 6 3 4 1 -2 12 -15 24 -29z m41 -11 c-3 -8
-7 -3 -11 10 -4 17 -3 21 5 13 5 -5 8 -16 6 -23z m63 -55 c13 -16 12 -16 -7
-6 -11 6 -27 19 -35 28 -13 16 -12 16 7 6 11 -6 27 -19 35 -28z m-65 -11 c-10
-10 -19 5 -10 18 6 11 8 11 12 0 2 -7 1 -15 -2 -18z m162 -8 c2 -1 -8 -5 -22
-7 -14 -3 -23 -1 -20 3 3 5 -2 9 -10 9 -9 0 -16 4 -16 9 0 8 54 -4 68 -14z
m42 21 c0 -3 -4 -8 -10 -11 -5 -3 -10 -1 -10 4 0 6 5 11 10 11 6 0 10 -2 10
-4z m-217 -56 c-3 -12 0 -20 6 -20 7 0 9 -4 6 -10 -10 -17 -25 -11 -25 10 0
11 -4 20 -10 20 -5 0 -10 5 -10 10 0 6 9 10 19 10 14 0 18 -5 14 -20z m-769
-52 c-5 -7 -1 -9 9 -5 10 3 17 3 17 -2 0 -12 -36 -20 -60 -14 -26 7 -25 18 3
30 25 12 41 7 31 -9z m-64 -4 c0 -2 -9 -4 -20 -4 -11 0 -20 4 -20 9 0 5 9 7
20 4 11 -3 20 -7 20 -9z m830 -4 c0 -5 -4 -10 -10 -10 -5 0 -10 5 -10 10 0 6
5 10 10 10 6 0 10 -4 10 -10z m-595 -66 c13 -9 29 -13 35 -9 5 3 10 1 10 -4 0
-6 9 -11 20 -11 21 0 27 -15 9 -25 -5 -4 -18 0 -27 8 -9 8 -34 20 -54 27 -21
6 -38 16 -38 21 0 14 18 11 45 -7z m567 -6 c-7 -7 -12 -8 -12 -2 0 6 3 14 7
17 3 4 9 5 12 2 2 -3 -1 -11 -7 -17z m-967 2 c4 -6 11 -8 16 -5 5 4 9 2 9 -3
0 -6 -13 -15 -30 -20 -19 -7 -32 -20 -36 -37 -6 -26 -44 -56 -44 -35 0 5 -5 9
-12 8 -24 -6 -19 29 6 40 17 7 24 17 20 27 -9 23 58 47 71 25z m433 -47 c6
-19 -23 -26 -65 -18 -36 6 -37 7 -18 21 23 17 77 15 83 -3z m117 7 c-3 -5 -14
-10 -23 -9 -14 0 -13 2 3 9 27 11 27 11 20 0z m351 -15 c-25 -19 -37 -19 -30
0 4 8 16 15 28 15 21 -1 21 -1 2 -15z m-562 -20 c11 -8 29 -12 43 -9 19 5 23
2 23 -16 0 -17 -4 -21 -17 -15 -10 4 -31 11 -48 15 -48 12 -65 21 -59 31 8 13
36 10 58 -6z m596 11 c0 -3 -4 -8 -10 -11 -5 -3 -10 -1 -10 4 0 6 5 11 10 11
6 0 10 -2 10 -4z m-450 -15 c0 -18 -17 -20 -36 -6 -18 14 -18 14 9 15 15 0 27
-4 27 -9z m308 -5 c-7 -7 -19 -11 -27 -8 -11 4 -10 7 5 13 29 12 36 10 22 -5z
m-1187 -29 c-10 -9 -11 -8 -5 6 3 10 9 15 12 12 3 -3 0 -11 -7 -18z m839 8
c10 -12 10 -15 -4 -15 -9 0 -16 7 -16 15 0 8 2 15 4 15 2 0 9 -7 16 -15z m80
-2 c0 -10 -4 -14 -8 -8 -4 6 -11 13 -16 18 -5 4 -2 7 7 7 10 0 17 -8 17 -17z
m-610 -23 c0 -31 -44 -70 -79 -70 l-30 0 34 34 c19 18 35 38 35 45 0 6 9 11
20 11 13 0 20 -7 20 -20z m-349 -57 c-10 -21 -21 -45 -24 -53 -4 -11 -6 -9 -6
5 -1 19 33 85 44 85 2 0 -4 -17 -14 -37z m-95 0 c-10 -10 -19 5 -10 18 6 11 8
11 12 0 2 -7 1 -15 -2 -18z m464 -2 c0 -15 -46 -40 -60 -31 -9 6 -7 10 9 15
11 3 21 11 21 16 0 5 7 9 15 9 8 0 15 -4 15 -9z m-432 -42 c-10 -5 -18 -18
-19 -27 0 -11 -2 -12 -6 -4 -6 15 14 42 31 42 6 0 3 -5 -6 -11z m239 -11 c-3
-8 -6 -5 -6 6 -1 11 2 17 5 13 3 -3 4 -12 1 -19z m137 -103 c-4 -8 -10 -12
-15 -9 -14 8 -10 24 6 24 9 0 12 -6 9 -15z m-447 -201 c-3 -3 -12 -4 -19 -1
-8 3 -5 6 6 6 11 1 17 -2 13 -5z m442 -61 c0 -25 -1 -26 -9 -8 -12 27 -12 35
0 35 6 0 10 -12 9 -27z m96 -13 c3 -5 -1 -10 -10 -10 -9 0 -13 5 -10 10 3 6 8
10 10 10 2 0 7 -4 10 -10z m29 -55 c-4 -8 -8 -15 -10 -15 -2 0 -4 7 -4 15 0 8
4 15 10 15 5 0 7 -7 4 -15z m186 -22 c0 -18 -17 -16 -24 3 -3 8 -10 12 -16 9
-5 -3 -10 1 -10 9 0 13 4 14 25 4 14 -6 25 -17 25 -25z m-280 -23 c0 -5 -7 -7
-15 -4 -8 4 -12 10 -9 15 6 11 24 2 24 -11z m257 -16 c-3 -3 -12 -4 -19 -1 -8
3 -5 6 6 6 11 1 17 -2 13 -5z"/>
<path d="M1470 1760 c0 -5 7 -10 16 -10 8 0 12 5 9 10 -3 6 -10 10 -16 10 -5
0 -9 -4 -9 -10z"/>
<path d="M943 1658 c-15 -19 -25 -38 -20 -38 2 0 17 11 33 25 21 18 24 25 13
25 -9 0 -21 -6 -26 -12z"/>
<path d="M1077 2243 c-4 -3 -7 -13 -7 -20 0 -12 3 -12 15 1 8 8 15 17 15 20 0
8 -15 7 -23 -1z"/>
<path d="M1160 2240 c0 -5 5 -10 10 -10 6 0 10 5 10 10 0 6 -4 10 -10 10 -5 0
-10 -4 -10 -10z"/>
<path d="M636 2216 c3 -12 -2 -35 -10 -51 -12 -22 -13 -31 -3 -37 8 -5 9 -8 1
-8 -17 0 -28 -51 -13 -61 10 -6 10 -11 0 -23 -12 -14 -10 -16 8 -16 11 0 21 4
21 10 0 12 58 38 95 42 42 4 64 48 41 83 -8 13 -29 26 -46 30 -16 4 -32 10
-35 15 -3 5 -19 15 -35 24 -29 14 -30 14 -24 -8z m80 -44 c6 -4 14 -17 18 -29
6 -17 -1 -27 -39 -52 -55 -37 -65 -38 -65 -8 0 30 41 70 63 61 10 -3 17 -1 17
5 0 6 -4 11 -10 11 -5 0 -10 5 -10 10 0 12 10 13 26 2z"/>
<path d="M1131 2195 c-18 -8 -37 -12 -42 -9 -5 3 -9 -2 -9 -10 0 -17 21 -22
34 -8 4 4 26 15 49 24 25 10 34 17 22 17 -11 0 -35 -6 -54 -14z"/>
<path d="M1029 2195 c-3 -2 -14 -6 -25 -9 -42 -9 -63 -19 -68 -31 -3 -9 2 -12
16 -10 23 5 108 45 108 51 0 6 -26 5 -31 -1z"/>
<path d="M840 2155 c0 -10 7 -15 18 -13 21 4 19 22 -2 26 -10 2 -16 -3 -16
-13z"/>
<path d="M1030 2161 c0 -6 5 -13 10 -16 6 -3 10 1 10 9 0 9 -4 16 -10 16 -5 0
-10 -4 -10 -9z"/>
<path d="M1885 2160 c-3 -5 -1 -10 4 -10 6 0 11 5 11 10 0 6 -2 10 -4 10 -3 0
-8 -4 -11 -10z"/>
<path d="M896 2151 c-4 -7 -5 -15 -2 -18 9 -9 19 4 14 18 -4 11 -6 11 -12 0z"/>
<path d="M2110 1889 c0 -5 5 -9 10 -9 6 0 20 -11 32 -25 23 -27 74 -41 113
-31 18 5 25 13 25 32 0 22 -2 23 -21 14 -15 -9 -32 -8 -67 3 -70 22 -92 26
-92 16z m130 -42 c8 -3 4 -6 -11 -6 -14 -1 -34 6 -45 14 -18 14 -17 14 11 6
17 -5 37 -12 45 -14z"/>
<path d="M2367 1833 c-11 -10 -8 -43 3 -44 6 -1 15 -3 20 -4 6 -1 14 -3 19 -4
15 -2 -8 -58 -25 -65 -9 -3 -12 -11 -9 -16 4 -6 3 -10 -2 -9 -24 4 -43 -3 -43
-16 0 -8 -6 -12 -13 -9 -7 2 -35 -18 -62 -45 -48 -49 -49 -50 -46 -108 6 -120
6 -133 -1 -133 -5 0 -8 -9 -8 -20 0 -11 6 -20 13 -20 9 0 8 -3 -2 -9 -7 -5
-11 -14 -7 -20 4 -7 1 -9 -8 -5 -9 3 -17 -3 -21 -16 -9 -30 2 -37 21 -14 8 10
13 13 9 6 -4 -7 -1 -19 5 -27 11 -13 8 -14 -20 -8 -25 5 -36 2 -46 -12 -11
-15 -29 -18 -109 -19 -68 -1 -95 -4 -95 -13 0 -12 13 -17 33 -14 4 0 7 -3 7
-9 0 -5 -5 -10 -11 -10 -8 0 -7 -6 2 -16 8 -9 14 -24 14 -33 0 -9 5 -15 12
-14 7 2 10 -3 7 -11 -6 -15 43 -73 66 -77 65 -12 182 66 172 116 -2 14 0 25 6
25 9 0 30 48 38 85 1 6 5 18 9 28 5 12 2 17 -10 17 -17 0 -17 1 -2 18 9 10 18
33 20 50 2 18 6 35 10 38 3 3 4 11 3 17 -2 7 -1 9 1 6 2 -4 23 -4 47 -2 26 3
46 1 50 -6 11 -18 26 -13 26 10 0 29 17 14 44 -40 14 -26 32 -53 40 -60 20
-17 20 -13 -3 35 -19 38 -19 39 0 46 10 4 19 10 19 14 0 13 -99 114 -112 114
-5 0 -34 -9 -66 -20 -57 -20 -57 -20 -73 -1 -20 24 -17 66 6 91 9 10 14 23 11
29 -4 5 -2 12 4 16 5 3 10 -1 10 -10 0 -20 0 -20 72 29 67 45 88 88 68 136
-14 33 -73 54 -93 33z m-101 -241 c-16 -15 -25 -20 -21 -12 13 25 38 50 44 45
3 -3 -8 -18 -23 -33z m94 -138 c0 -2 -7 -4 -15 -4 -8 0 -15 4 -15 10 0 5 7 7
15 4 8 -4 15 -8 15 -10z m-363 -286 c-3 -8 -6 -5 -6 6 -1 11 2 17 5 13 3 -3 4
-12 1 -19z m113 12 c0 -5 -5 -10 -11 -10 -5 0 -7 5 -4 10 3 6 8 10 11 10 2 0
4 -4 4 -10z"/>
<path d="M1920 1815 c0 -8 9 -15 20 -15 11 0 20 5 20 11 0 5 -4 7 -10 4 -5 -3
-10 -1 -10 4 0 6 -4 11 -10 11 -5 0 -10 -7 -10 -15z"/>
<path d="M2088 1813 c-10 -2 -18 -9 -18 -15 0 -5 7 -8 15 -4 8 3 15 1 15 -4 0
-6 8 -10 18 -11 16 0 16 -1 -1 -8 -15 -5 -10 -11 28 -30 46 -23 75 -23 74 1 0
12 -94 79 -108 77 -3 -1 -14 -3 -23 -6z m102 -63 c0 -5 -2 -10 -4 -10 -3 0 -8
5 -11 10 -3 6 -1 10 4 10 6 0 11 -4 11 -10z"/>
<path d="M1240 1719 c0 -5 14 -12 30 -16 17 -3 33 -9 36 -14 3 -5 -3 -6 -13
-2 -16 6 -16 5 -4 -10 12 -15 12 -17 -2 -11 -12 4 -15 -1 -12 -23 2 -18 -4
-34 -17 -44 -23 -21 -11 -31 40 -36 24 -3 32 0 26 8 -5 8 -3 9 5 4 7 -4 31 -7
54 -7 22 1 46 -2 51 -6 6 -3 18 -7 26 -8 8 -1 38 -6 65 -10 28 -4 67 -7 87 -5
50 4 112 -33 99 -57 -5 -9 -8 -28 -7 -42 1 -21 6 -25 36 -26 19 -1 50 -8 67
-18 39 -20 44 -20 37 -1 -4 8 -15 15 -26 15 -14 0 -18 5 -14 16 4 11 2 15 -8
11 -10 -4 -13 -1 -9 9 7 19 28 12 27 -10 -1 -9 3 -16 10 -15 28 3 36 -3 36
-31 0 -17 5 -30 13 -31 99 -8 116 -5 161 22 40 25 46 34 47 64 4 105 5 100
-21 103 -14 2 -29 10 -33 18 -12 20 -61 17 -82 -6 -23 -25 -13 -55 13 -41 20
10 58 5 79 -11 9 -7 7 -20 -9 -53 -18 -36 -27 -45 -52 -47 -77 -8 -152 30
-149 75 1 19 -5 28 -28 37 -16 7 -29 17 -29 22 0 6 -7 7 -16 4 -8 -3 -28 -3
-42 1 l-27 7 30 7 c27 6 25 7 -14 8 -24 0 -42 4 -38 7 7 8 -51 49 -84 60 -13
4 -37 8 -54 9 -16 1 -43 5 -59 10 -23 6 -27 5 -21 -5 8 -14 -20 -11 -59 5 -14
6 -17 5 -12 -3 5 -8 -1 -12 -15 -12 -18 0 -19 2 -9 15 8 10 9 15 2 15 -6 0
-18 12 -26 28 -8 15 -15 24 -16 21 0 -4 -16 -3 -35 1 -20 5 -35 4 -35 -1z
m550 -219 c0 -5 -4 -10 -9 -10 -6 0 -13 5 -16 10 -3 6 1 10 9 10 9 0 16 -4 16
-10z"/>
<path d="M1090 1682 c0 -14 32 -20 55 -11 13 5 15 8 5 8 -8 1 -25 4 -37 7 -13
4 -23 2 -23 -4z"/>
<path d="M1235 1630 c-3 -5 -2 -10 4 -10 5 0 13 5 16 10 3 6 2 10 -4 10 -5 0
-13 -4 -16 -10z"/>
<path d="M1548 1494 c-3 -3 -25 -5 -49 -6 -24 0 -55 -5 -69 -10 -28 -11 -89
-20 -135 -21 -16 0 -38 -9 -49 -19 -11 -10 -25 -18 -32 -18 -7 0 -22 -12 -33
-26 -12 -15 -21 -23 -21 -18 -1 23 -20 -24 -20 -48 0 -38 14 -35 40 9 17 29
19 38 8 45 -10 8 -9 9 3 5 10 -3 28 6 45 24 15 16 35 29 43 29 10 0 -1 -16
-28 -40 -43 -40 -44 -41 -38 -92 4 -28 12 -56 18 -62 9 -8 10 -4 7 16 -4 18 1
33 13 44 10 9 21 29 24 44 8 38 46 84 70 88 11 1 32 4 48 7 37 6 34 -8 -7 -28
-51 -24 -89 -79 -81 -117 4 -16 11 -27 17 -24 6 4 6 10 0 16 -13 13 -3 48 12
48 7 0 23 11 35 24 34 36 103 49 192 37 83 -11 129 -6 129 15 0 17 -12 18 -27
3 -7 -7 -12 -6 -16 4 -4 10 3 17 19 21 30 8 31 20 2 40 -21 15 -108 22 -120
10z m39 -34 c9 0 13 -6 9 -15 -3 -9 0 -15 9 -15 8 0 15 -5 15 -11 0 -6 -15 -2
-34 9 -29 17 -41 19 -76 11 -39 -9 -72 -5 -39 4 8 3 28 9 44 15 17 5 36 8 43
6 8 -2 20 -4 29 -4z"/>
<path d="M2457 1364 c-3 -3 -2 -16 3 -28 4 -13 9 -43 11 -67 3 -58 4 -60 40
-47 17 6 27 13 22 17 -4 3 -22 34 -39 68 -17 35 -33 60 -37 57z"/>
<path d="M2424 1295 c-4 -18 2 -38 25 -72 47 -73 63 -93 72 -93 5 0 -9 26 -31
58 -29 42 -40 67 -40 95 0 42 -16 50 -26 12z"/>
<path d="M1430 1248 c0 -4 16 -8 35 -8 28 0 35 -4 35 -20 0 -13 -6 -20 -17
-19 -11 0 -13 3 -5 6 20 8 14 23 -9 23 -16 0 -20 -5 -16 -19 3 -11 -1 -22 -9
-25 -17 -7 -28 10 -13 20 9 5 7 11 -6 21 -22 16 -35 17 -35 3 0 -5 7 -10 16
-10 26 0 5 -19 -29 -25 -20 -4 -43 -1 -62 9 -39 21 -69 21 -61 1 3 -8 1 -15
-4 -15 -6 0 -10 -4 -10 -8 0 -11 48 -14 54 -3 10 15 90 -6 108 -29 10 -13 20
-21 22 -19 2 2 8 13 14 24 6 11 12 14 12 8 0 -15 30 -18 30 -3 0 6 13 4 30 -5
36 -19 40 -19 40 1 0 13 6 15 33 9 17 -4 50 -8 72 -9 22 -1 46 -6 54 -10 9 -6
18 -3 26 7 14 19 26 12 18 -9 -3 -8 -16 -14 -29 -14 -13 0 -24 -6 -24 -12 0
-9 -14 -13 -40 -12 -22 0 -40 -4 -40 -10 0 -6 -4 -5 -8 2 -10 15 -110 10 -156
-7 -16 -7 -47 -14 -70 -16 -31 -4 -49 -14 -73 -42 -37 -41 -47 -79 -14 -49 17
16 19 16 25 0 4 -9 4 -19 1 -22 -3 -3 -5 0 -5 6 0 7 -4 12 -10 12 -14 0 -12
-27 3 -33 6 -2 21 0 32 5 19 8 19 8 3 -5 -24 -19 -23 -27 3 -27 11 0 34 -9 50
-21 17 -12 39 -19 50 -16 12 3 17 1 12 -6 -4 -7 0 -8 11 -4 9 4 31 0 47 -8 16
-9 33 -13 38 -10 5 2 11 -2 15 -10 3 -9 12 -12 22 -8 9 3 0 -10 -20 -29 -20
-19 -36 -40 -36 -45 0 -6 -7 -13 -15 -17 -8 -3 -15 -13 -15 -22 0 -16 -7 -16
-55 1 -16 5 -17 5 -5 -4 13 -9 13 -11 -2 -11 -10 0 -18 5 -18 10 0 6 -8 10
-17 10 -10 0 -37 7 -61 15 -48 17 -74 10 -93 -26 -15 -29 -4 -35 21 -12 17 17
28 19 71 12 28 -4 56 -13 63 -18 18 -16 139 -18 144 -3 2 7 8 12 13 12 4 0 5
-8 2 -17 -6 -16 -5 -16 22 1 17 11 34 25 38 33 4 7 12 13 17 13 18 0 62 49 58
66 -1 10 -25 30 -53 45 -27 15 -60 39 -72 53 -12 14 -27 26 -32 26 -6 0 -18
12 -28 26 -13 21 -22 25 -45 20 -15 -3 -28 -1 -28 4 0 6 5 10 11 10 5 0 7 5 4
10 -4 7 6 9 30 7 28 -3 39 0 50 17 8 11 15 15 15 9 0 -7 -4 -15 -10 -18 -5 -3
-10 -10 -10 -14 0 -11 50 -32 60 -26 5 3 12 -1 17 -8 11 -18 43 -29 43 -15 0
6 11 1 26 -13 16 -15 23 -18 19 -7 -4 9 -1 19 6 24 7 4 15 2 17 -4 6 -19 32
-14 32 6 0 12 3 14 8 4 12 -19 36 31 30 62 -4 18 -1 26 8 26 8 0 14 5 14 10 0
6 -5 10 -11 10 -5 0 -7 5 -4 10 3 6 10 10 15 10 15 0 51 -43 49 -60 -2 -28 1
-33 16 -20 12 10 15 7 21 -14 3 -15 2 -39 -4 -54 -11 -29 -11 -94 0 -102 3 -3
-4 -26 -16 -52 -13 -26 -21 -50 -18 -53 12 -11 22 -4 22 17 0 17 3 19 12 10 7
-7 17 -12 22 -12 6 0 5 5 -2 12 -13 13 -17 58 -4 58 4 0 16 -10 26 -21 15 -18
16 -23 5 -31 -10 -7 -9 -8 5 -4 13 5 17 2 13 -8 -6 -16 43 -58 83 -71 13 -4
30 -14 38 -21 19 -20 45 -17 60 6 11 18 9 21 -15 31 -73 29 -123 53 -123 59 0
4 -11 13 -25 20 -14 7 -25 17 -25 22 0 5 -10 19 -22 31 -14 13 -24 37 -26 57
-2 33 -2 34 12 15 8 -11 20 -24 27 -30 6 -5 27 -25 46 -42 19 -18 38 -33 43
-33 4 0 13 -6 19 -14 7 -8 27 -18 44 -22 18 -3 45 -14 60 -23 17 -10 30 -12
35 -6 4 6 16 15 26 21 38 20 28 31 -32 36 -83 6 -182 55 -208 103 -19 35 -42
49 -30 19 5 -14 4 -15 -9 -4 -15 13 -21 85 -7 93 4 2 1 2 -5 1 -7 -2 -13 3
-13 11 0 28 26 15 43 -20 9 -19 21 -35 27 -35 5 0 10 -7 10 -15 0 -17 50 -66
62 -59 4 3 8 1 8 -5 0 -6 14 -17 30 -26 27 -14 30 -14 30 0 0 9 5 13 10 10 6
-4 8 -11 5 -16 -7 -10 14 -11 67 -3 21 4 35 10 32 15 -3 5 1 6 9 3 21 -8 47
34 47 72 0 51 -69 97 -84 58 -7 -18 18 -64 34 -64 5 0 7 -7 3 -16 -10 -26 -61
-42 -101 -33 -24 5 -41 4 -51 -4 -12 -10 -14 -9 -8 6 4 11 2 17 -8 17 -33 0
-115 116 -115 162 0 20 -69 98 -86 98 -8 0 -14 5 -14 10 0 6 -5 10 -10 10 -6
0 -20 9 -32 20 -20 18 -39 25 -62 21 -4 -1 -15 4 -22 10 -22 18 -42 -4 -24
-26 18 -21 0 -18 -30 5 -20 16 -22 20 -7 20 9 0 17 4 17 9 0 6 -16 7 -35 4
-19 -3 -42 -2 -52 2 -30 13 -73 17 -73 6 0 -5 4 -11 9 -13 5 -1 3 -9 -5 -16
-11 -10 -14 -10 -14 1 0 8 -12 20 -27 26 -31 12 -73 11 -73 -1z m235 -40 c34
-15 27 -32 -15 -36 -27 -3 -32 -1 -26 13 3 9 6 21 6 26 0 12 4 11 35 -3z m-85
-24 c0 -2 -9 -4 -20 -4 -11 0 -20 4 -20 9 0 5 9 7 20 4 11 -3 20 -7 20 -9z
m194 4 c-5 -8 2 -9 25 -5 20 4 30 3 26 -3 -7 -11 -45 -13 -71 -3 -16 6 -16 7
2 14 26 10 26 10 18 -3z m65 -40 c-5 -41 16 -54 24 -15 l4 22 2 -23 c2 -33
-28 -40 -49 -11 -10 13 -16 27 -14 31 8 13 35 9 33 -4z m72 -87 c2 -7 -1 -15
-8 -18 -16 -6 -26 32 -17 70 l8 32 6 -35 c4 -19 9 -41 11 -49z m-107 37 c-8
-13 -41 -9 -53 6 -10 12 -7 15 16 18 28 3 46 -9 37 -24z m-69 1 c11 -17 -1
-21 -15 -4 -8 9 -8 15 -2 15 6 0 14 -5 17 -11z m-161 -41 c-3 -4 -9 -8 -15 -8
-5 0 -9 4 -9 8 0 5 7 9 15 9 8 0 12 -4 9 -9z m-64 -2 c0 -2 -9 -6 -20 -9 -11
-3 -18 -1 -14 4 5 9 34 13 34 5z m97 -62 c-3 -3 -12 -4 -19 -1 -8 3 -5 6 6 6
11 1 17 -2 13 -5z m-211 -51 c-10 -10 -19 5 -10 18 6 11 8 11 12 0 2 -7 1 -15
-2 -18z m19 -22 c-3 -6 -11 -11 -17 -11 -6 0 -6 6 2 15 14 17 26 13 15 -4z
m85 -21 c0 -5 -2 -10 -4 -10 -3 0 -8 5 -11 10 -3 6 -1 10 4 10 6 0 11 -4 11
-10z m143 -100 c-10 -11 -21 -20 -25 -20 -5 0 -3 9 4 20 7 11 18 20 25 20 9 0
7 -6 -4 -20z m467 -10 c13 -8 13 -10 -2 -10 -9 0 -20 5 -23 10 -8 13 5 13 25
0z m-515 -70 c3 -6 -1 -7 -9 -4 -18 7 -21 14 -7 14 6 0 13 -4 16 -10z m459
-19 c-2 -3 -12 3 -22 13 -16 17 -16 18 5 5 12 -7 20 -15 17 -18z"/>
<path d="M1335 1240 c3 -5 8 -10 11 -10 2 0 4 5 4 10 0 6 -5 10 -11 10 -5 0
-7 -4 -4 -10z"/>
<path d="M1150 1231 c0 -5 5 -13 10 -16 6 -3 10 -2 10 4 0 5 -4 13 -10 16 -5
3 -10 2 -10 -4z"/>
<path d="M1300 1094 c0 -14 3 -14 15 -4 8 7 15 14 15 16 0 2 -7 4 -15 4 -8 0
-15 -7 -15 -16z"/>
<path d="M710 1088 c-43 -12 -55 -22 -92 -72 -21 -29 -28 -51 -28 -83 0 -27 4
-42 10 -38 6 3 10 -3 10 -15 0 -42 124 -132 148 -108 9 9 12 9 12 1 0 -12 38
-12 57 0 20 13 72 15 78 3 3 -8 7 -7 11 2 8 17 34 15 34 -3 0 -22 33 -18 48 5
14 24 45 26 62 5 7 -8 16 -12 22 -9 5 3 4 12 -3 20 -7 8 -7 14 -1 14 12 0 36
-28 38 -44 3 -32 5 -36 14 -36 6 0 10 7 10 15 0 9 6 12 15 9 8 -4 15 -1 15 5
0 6 -4 11 -10 11 -5 0 -10 10 -11 23 0 20 -1 20 -8 3 -5 -14 -10 -16 -15 -8
-4 7 -4 17 -1 22 4 6 -5 10 -19 10 -14 0 -26 5 -26 10 0 6 -11 10 -25 10 -13
0 -28 7 -33 16 -6 11 -11 13 -16 5 -4 -6 -1 -11 6 -11 9 0 9 -3 -2 -10 -13 -8
-12 -10 3 -10 10 0 15 -4 12 -10 -11 -17 -23 -11 -34 18 l-11 27 3 -30 c3 -29
1 -31 -25 -27 -29 4 -40 32 -13 32 8 0 15 5 15 10 0 14 -13 13 -34 -3 -17 -13
-106 -15 -125 -2 -6 3 -15 4 -19 1 -17 -10 -77 16 -96 42 -11 14 -19 40 -19
59 1 43 25 94 40 88 7 -2 13 1 13 7 0 6 3 8 6 5 4 -3 16 -2 27 4 14 8 18 8 13
0 -4 -6 0 -11 10 -11 9 0 23 -8 30 -17 10 -15 10 -21 -1 -33 -7 -8 -17 -27
-20 -42 -6 -23 -4 -28 11 -28 24 1 45 18 62 51 12 22 12 31 -1 55 -31 60 -81
81 -147 62z m200 -278 c0 -5 -10 -10 -22 -9 -22 0 -22 1 -3 9 11 5 21 9 23 9
1 1 2 -3 2 -9z"/>
<path d="M1826 1017 c4 -6 14 -20 22 -30 8 -9 12 -20 7 -25 -4 -4 -10 -1 -12
6 -8 23 -25 12 -21 -13 4 -17 1 -25 -8 -25 -18 0 -18 -8 1 -26 8 -9 15 -24 15
-33 0 -19 27 -48 35 -39 3 3 -1 18 -9 33 -15 30 -12 55 8 55 7 0 18 12 24 26
7 14 8 23 3 19 -5 -3 -18 8 -27 25 -10 16 -24 32 -31 35 -9 3 -11 0 -7 -8z"/>
<path d="M1800 891 c0 -5 5 -13 10 -16 6 -3 10 -2 10 4 0 5 -4 13 -10 16 -5 3
-10 2 -10 -4z"/>
<path d="M1270 822 c-14 -2 -37 -18 -52 -35 -29 -34 -27 -59 2 -32 13 11 37
17 74 17 31 1 56 2 56 4 0 1 -4 14 -10 28 -9 24 -14 26 -70 18z"/>
<path d="M1030 780 c0 -5 5 -10 11 -10 5 0 7 5 4 10 -3 6 -8 10 -11 10 -2 0
-4 -4 -4 -10z"/>
<path d="M1360 760 c0 -5 5 -10 11 -10 5 0 7 5 4 10 -3 6 -8 10 -11 10 -2 0
-4 -4 -4 -10z"/>
<path d="M1490 745 c-8 -9 -8 -15 -2 -15 12 0 26 19 19 26 -2 2 -10 -2 -17
-11z"/>
<path d="M1930 740 c0 -5 -5 -9 -11 -7 -6 1 -14 -4 -16 -11 -3 -8 1 -10 14 -5
15 6 16 4 6 -9 -7 -8 -10 -18 -6 -21 11 -11 -19 -37 -42 -37 -14 0 -33 -13
-49 -35 -18 -23 -32 -32 -44 -29 -12 4 -13 3 -4 -3 10 -8 10 -12 -3 -23 -12
-10 -15 -10 -15 1 0 8 -6 6 -16 -7 -12 -15 -14 -15 -10 -2 3 12 -1 15 -18 14
-13 -2 -29 -7 -36 -11 -16 -10 -56 -17 -87 -16 -90 2 -123 6 -123 13 0 4 -7 5
-15 2 -8 -4 -15 -1 -15 5 0 6 -4 11 -10 11 -5 0 -10 -6 -10 -14 0 -8 -4 -18
-10 -21 -6 -4 -7 1 -3 11 5 13 3 16 -10 11 -9 -3 -16 -3 -16 1 4 23 -5 32 -38
38 -44 8 -113 42 -113 55 0 5 14 9 30 9 17 0 30 5 30 10 0 15 -60 12 -66 -4
-4 -11 -12 -12 -39 -3 -19 5 -32 14 -29 19 3 4 -9 8 -25 8 -18 0 -31 -5 -31
-12 0 -9 -4 -8 -10 2 -8 12 -12 13 -19 2 -4 -8 -11 -13 -15 -13 -11 2 -64 -28
-72 -40 -15 -24 -14 -69 1 -69 9 0 15 -10 16 -22 0 -13 3 -18 5 -11 4 8 11 6
25 -8 12 -12 33 -19 57 -19 42 0 62 14 62 42 0 25 -28 34 -43 16 -7 -9 -22
-18 -35 -21 -17 -4 -23 0 -27 16 -10 50 -9 60 10 71 10 6 25 17 33 24 7 6 24
10 38 7 13 -3 35 -7 49 -10 14 -3 25 -12 25 -21 0 -13 3 -14 14 -5 12 10 21 8
42 -6 22 -14 25 -19 11 -21 -9 -2 -17 -8 -17 -13 0 -13 54 -11 68 3 9 9 15 9
24 0 8 -8 5 -14 -15 -21 -15 -6 -27 -14 -27 -19 0 -5 19 -25 42 -46 37 -31 43
-34 49 -19 5 14 7 12 13 -10 3 -15 11 -25 16 -22 5 3 11 1 15 -5 3 -5 19 -10
36 -10 16 0 29 -4 29 -9 0 -4 12 -6 26 -3 15 3 29 -1 34 -8 12 -19 41 12 50
53 l8 32 1 -36 c1 -45 10 -53 33 -32 18 16 18 16 12 0 -5 -13 -2 -16 10 -11 8
3 15 9 14 12 -2 19 3 25 12 12 8 -12 11 -12 28 3 10 9 25 17 34 17 8 0 30 14
48 31 25 25 34 28 41 18 9 -14 9 -14 13 24 0 6 16 19 33 27 18 8 33 19 33 24
0 8 -9 6 -62 -11 -27 -8 -23 30 5 53 12 10 16 12 10 4 -20 -22 -16 -39 7 -33
11 3 20 14 20 24 0 11 5 19 11 19 6 0 9 -9 6 -20 -3 -11 -2 -20 3 -20 12 0 20
29 11 35 -14 8 -1 45 15 45 17 0 18 24 4 51 -11 20 -30 26 -30 9z m-100 -159
c0 -5 -12 -17 -27 -26 l-28 -18 24 27 c26 28 31 31 31 17z m-455 -51 c4 -6 -6
-7 -27 -3 -44 8 -48 13 -10 13 17 0 34 -4 37 -10z m325 0 c0 -5 -4 -10 -10
-10 -5 0 -10 5 -10 10 0 6 5 10 10 10 6 0 10 -4 10 -10z m-43 -6 c-3 -3 -12
-4 -19 -1 -8 3 -5 6 6 6 11 1 17 -2 13 -5z m93 -4 c0 -5 -5 -10 -11 -10 -5 0
-7 5 -4 10 3 6 8 10 11 10 2 0 4 -4 4 -10z m35 -41 c-3 -4 -12 -6 -20 -3 -8 4
-13 10 -10 15 3 4 12 6 20 3 8 -4 13 -10 10 -15z m-310 -9 c3 -5 1 -10 -4 -10
-6 0 -11 5 -11 10 0 6 2 10 4 10 3 0 8 -4 11 -10z m255 6 c0 -9 -30 -14 -35
-6 -4 6 3 10 14 10 12 0 21 -2 21 -4z"/>
<path d="M1164 721 c17 -19 46 -19 46 0 0 13 -18 11 -23 -3 -3 -8 -6 -6 -6 5
-1 9 -8 17 -18 17 -15 0 -15 -2 1 -19z"/>
<path d="M1870 694 c0 -14 4 -23 10 -19 6 3 10 15 10 26 0 10 -4 19 -10 19 -5
0 -10 -12 -10 -26z"/>
<path d="M1210 689 c0 -5 5 -7 10 -4 6 3 10 8 10 11 0 2 -4 4 -10 4 -5 0 -10
-5 -10 -11z"/>
<path d="M1340 683 c-33 -11 -55 -63 -26 -63 8 0 13 7 12 16 -2 23 19 28 37 9
20 -20 76 -20 84 0 8 22 -2 28 -39 28 -18 0 -37 3 -43 7 -5 4 -17 5 -25 3z"/>
<path d="M1470 660 c-8 -5 -12 -11 -9 -14 7 -8 49 5 49 15 0 12 -21 11 -40 -1z"/>
<path d="M1970 660 c0 -5 5 -10 11 -10 5 0 7 5 4 10 -3 6 -8 10 -11 10 -2 0
-4 -4 -4 -10z"/>
</g>
</svg>
